<svg xmlns="http://www.w3.org/2000/svg" version="1.1" xmlns:xlink="http://www.w3.org/1999/xlink" xmlns:svgjs="http://svgjs.dev/svgjs" width="1440" height="560" preserveAspectRatio="none" viewBox="0 0 1440 560"><g mask="url(&quot;#SvgjsMask1002&quot;)" fill="none"><rect width="1440" height="560" x="0" y="0" fill="url(&quot;#SvgjsLinearGradient1003&quot;)"></rect><path d="M1440 0L774.01 0L1440 162.8z" fill="rgba(255, 255, 255, .1)"></path><path d="M774.01 0L1440 162.8L1440 288.42L409.40999999999997 0z" fill="rgba(255, 255, 255, .075)"></path><path d="M409.40999999999985 0L1440 288.42L1440 321.5L209.31999999999985 0z" fill="rgba(255, 255, 255, .05)"></path><path d="M209.31999999999994 0L1440 321.5L1440 462.7L196.94999999999993 0z" fill="rgba(255, 255, 255, .025)"></path><path d="M0 560L525.88 560L0 452.28z" fill="rgba(0, 0, 0, .1)"></path><path d="M0 452.28L525.88 560L811.64 560L0 416.10999999999996z" fill="rgba(0, 0, 0, .075)"></path><path d="M0 416.11L811.64 560L1103.3600000000001 560L0 210.58z" fill="rgba(0, 0, 0, .05)"></path><path d="M0 210.58000000000004L1103.3600000000001 560L1122.7900000000002 560L0 75.20000000000005z" fill="rgba(0, 0, 0, .025)"></path></g><defs><mask id="SvgjsMask1002"><rect width="1440" height="560" fill="#ffffff"></rect></mask><linearGradient x1="50%" y1="100%" x2="50%" y2="0%" gradientUnits="userSpaceOnUse" id="SvgjsLinearGradient1003"><stop stop-color="rgba(14, 42, 71, 1)" offset="0"></stop><stop stop-color="rgba(56, 163, 165, 1)" offset="0"></stop></linearGradient></defs></svg>